# xmcd
#
# Track frame offsets:
#	182
#	11182
#	21487
#	31882
#	44857
#	54465
#	66590
#	78157
#	91082
#	103462
#	117082
#	127732
#	139940
#	151205
#	162555
#	174087
#	186327
#	200292
#	210227
#	220355
#	234705
#	247205
#	259280
#	270277
#
# Disc length: 3725 seconds
# Revision: 1
# Processed by: cddbd v1.5.2PL0 Copyright (c) Steve Scherf et al.
# Submitted via: dBpowerAMP V12.0
#
DISCID=5e0e8b18
DTITLE=Eddy Arnold - Welcome to My World
DYEAR=1995
DGENRE=Country
TTITLE0=Bouquet of Roses
TTITLE1=Anytime
TTITLE2=Here Comes Heaven
TTITLE3=I Really Don't Want to Know
TTITLE4=Misty Blue
TTITLE5=Make the World Go Away
TTITLE6=I'll Hold You in My Heart
TTITLE7=Just a Little Lovin' (Will Go a Long Way)
TTITLE8=That's How Much I Love You
TTITLE9=Mollie Darling
TTITLE10=Lay Some Happiness on Me
TTITLE11=I Love How You Love Me
TTITLE12=What a Wonderful World
TTITLE13=Turn the World Around
TTITLE14=Welcome to My World
TTITLE15=The Richest Man (In the World)
TTITLE16=The End of the World
TTITLE17=What's He Doin' in My World
TTITLE18=Last Word in Lonesome Is Me
TTITLE19=Four Walls
TTITLE20=Lonely Again
TTITLE21=The Other Side of Lonely
TTITLE22=Just Call Me Lonesome
TTITLE23=Somebody Like Me
EXTD=
EXTT0=
EXTT1=
EXTT2=
EXTT3=
EXTT4=
EXTT5=
EXTT6=
EXTT7=
EXTT8=
EXTT9=
EXTT10=
EXTT11=
EXTT12=
EXTT13=
EXTT14=
EXTT15=
EXTT16=
EXTT17=
EXTT18=
EXTT19=
EXTT20=
EXTT21=
EXTT22=
EXTT23=
PLAYORDER=
